<?xml version="1.0" standalone="no"?>
<!DOCTYPE svg PUBLIC "-//W3C//DTD SVG 20010904//EN"
 "http://www.w3.org/TR/2001/REC-SVG-20010904/DTD/svg10.dtd">
<svg version="1.0" xmlns="http://www.w3.org/2000/svg"
 width="260.000000pt" height="260.000000pt" viewBox="0 0 260.000000 260.000000"
 preserveAspectRatio="xMidYMid meet">
<metadata>
Created by potrace 1.14, written by Peter Selinger 2001-2017
</metadata>
<g transform="translate(0.000000,260.000000) scale(0.100000,-0.100000)"
fill="#000000" stroke="none">
<path d="M1130 2574 c-301 -43 -552 -171 -762 -389 -166 -172 -299 -432 -334
-655 -44 -280 -10 -531 105 -775 47 -98 109 -198 167 -266 47 -55 154 -163
154 -155 0 4 10 -3 22 -14 13 -12 39 -30 59 -40 19 -10 59 -37 87 -60 29 -22
52 -38 52 -35 0 4 12 -2 28 -13 79 -56 246 -115 390 -138 74 -12 89 -13 197
-14 102 0 152 3 215 15 14 3 41 8 60 11 125 21 348 119 476 210 93 65 247 222
312 317 113 164 197 387 218 578 13 115 5 353 -13 382 -3 5 -8 26 -10 46 -7
49 -55 193 -87 261 -155 328 -429 572 -761 679 -185 60 -401 81 -575 55z"/>
</g>
</svg>
